# xmcd
#
# Track frame offsets: 
#        150
#        35938
#        71405
#        104683
#        119848
#        137166
#        162798
#        198118
#
# Disc length: 2878 seconds
#
# Revision: 0
# Processed by: cddbd v1.5.2PL0 Copyright (c) Steve Scherf et al.
# Submitted via: ExactAudioCopy v0.99pb4
#
DISCID=780b3c08
DTITLE=madhura-vani - candra
DYEAR=2005
DGENRE=Indie
TTITLE0=the rain
TTITLE1=draupadi
TTITLE2=the Lord
TTITLE3=the story of pingala
TTITLE4=ramayana
TTITLE5=jagannatha swami
TTITLE6=yamunastakam
TTITLE7=the hope
EXTD=
EXTT0=
EXTT1=
EXTT2=
EXTT3=
EXTT4=
EXTT5=
EXTT6=
EXTT7=
PLAYORDER=
